<svg id='Clip Studio Paint' width='24' height='24' viewBox='0 0 24 24' xmlns='http://www.w3.org/2000/svg' xmlns:xlink='http://www.w3.org/1999/xlink'><rect width='24' height='24' stroke='none' fill='#000000' opacity='0'/>


<g transform="matrix(1.11 0 0 1.11 12 12)" >
<path style="stroke: none; stroke-width: 1; stroke-dasharray: none; stroke-linecap: butt; stroke-dashoffset: 0; stroke-linejoin: miter; stroke-miterlimit: 4; fill: #0f1020; fill-rule: nonzero; opacity: 1;" transform=" translate(-12, -12)" d="M 19 3 L 5 3 C 3.9 3 3 3.9 3 5 L 3 19 C 3 20.1 3.9 21 5 21 L 19 21 C 20.1 21 21 20.1 21 19 L 21 5 C 21 3.9 20.1 3 19 3 z M 16.957 11.575 C 16.651 12.818999999999999 15.804 13.831999999999999 14.633000000000001 14.353 L 13.098 15.121 L 13.601 15.867 C 13.91 16.325 13.789000000000001 16.946 13.331000000000001 17.255000000000003 L 13.331000000000001 17.255000000000003 C 12.873000000000001 17.563000000000002 12.252 17.442000000000004 11.943000000000001 16.985000000000003 L 11.44 16.24 C 10.764999999999999 15.238999999999999 11.123999999999999 13.872999999999998 12.203999999999999 13.332999999999998 L 13.778999999999998 12.545999999999998 C 14.421999999999999 12.258999999999997 14.856999999999998 11.737999999999998 15.013999999999998 11.098999999999997 C 15.197999999999997 10.351999999999997 14.968999999999998 9.570999999999996 14.387999999999998 9.030999999999997 C 13.726999999999999 8.416999999999996 12.720999999999998 8.345999999999997 11.915 8.751999999999997 L 9.161999999999999 10.136999999999997 C 8.983999999999998 10.225999999999997 8.922999999999998 10.377999999999997 8.902 10.460999999999997 C 8.881 10.543999999999997 8.863999999999999 10.706999999999997 8.978 10.868999999999996 C 9.118 11.067999999999996 9.381 11.136999999999997 9.597999999999999 11.032999999999996 L 11.770999999999999 10.010999999999996 C 12.270999999999999 9.775999999999996 12.866 9.990999999999996 13.100999999999999 10.489999999999995 L 13.100999999999999 10.490999999999994 C 13.335999999999999 10.990999999999994 13.120999999999999 11.585999999999995 12.622 11.820999999999994 L 10.547 12.795999999999994 C 9.703000000000001 13.192999999999994 8.685 13.164999999999994 7.931000000000001 12.616999999999994 C 7.073000000000001 11.991999999999994 6.7170000000000005 10.944999999999993 6.962000000000001 9.973999999999993 C 7.139 9.267999999999994 7.613 8.674999999999994 8.263 8.348999999999993 L 10.911 7.015999999999993 C 12.591 6.169999999999993 15.047999999999998 6.580999999999993 16.205 8.063999999999993 C 16.987 9.063 17.261 10.342 16.957 11.575 z" stroke-linecap="round" />
</g>
</svg>